<svg width="1600" height="1200" viewBox="0 0 1600 1200" fill="none" xmlns="http://www.w3.org/2000/svg">
  <rect width="1600" height="1200" fill="url(#bg)"/>
  <rect y="830" width="1600" height="370" fill="#101726"/>
  <rect x="123" y="472" width="142" height="358" rx="8" fill="#1E293B"/>
  <rect x="281" y="388" width="206" height="442" rx="8" fill="#334155"/>
  <rect x="527" y="262" width="168" height="568" rx="8" fill="#243145"/>
  <rect x="728" y="340" width="232" height="490" rx="8" fill="#172030"/>
  <rect x="1001" y="304" width="171" height="526" rx="8" fill="#243145"/>
  <rect x="1215" y="420" width="112" height="410" rx="8" fill="#334155"/>
  <rect x="1351" y="520" width="140" height="310" rx="8" fill="#1E293B"/>
  <g fill="#FFD46B">
    <rect x="156" y="520" width="22" height="28"/><rect x="205" y="520" width="22" height="28"/><rect x="156" y="576" width="22" height="28"/><rect x="205" y="576" width="22" height="28"/>
    <rect x="322" y="442" width="28" height="34"/><rect x="382" y="442" width="28" height="34"/><rect x="322" y="510" width="28" height="34"/><rect x="382" y="510" width="28" height="34"/><rect x="322" y="578" width="28" height="34"/><rect x="382" y="578" width="28" height="34"/>
    <rect x="570" y="324" width="24" height="30"/><rect x="626" y="324" width="24" height="30"/><rect x="570" y="388" width="24" height="30"/><rect x="626" y="388" width="24" height="30"/><rect x="570" y="452" width="24" height="30"/><rect x="626" y="452" width="24" height="30"/>
    <rect x="775" y="398" width="26" height="32"/><rect x="832" y="398" width="26" height="32"/><rect x="889" y="398" width="26" height="32"/><rect x="775" y="462" width="26" height="32"/><rect x="832" y="462" width="26" height="32"/><rect x="889" y="462" width="26" height="32"/>
    <rect x="1041" y="360" width="22" height="30"/><rect x="1090" y="360" width="22" height="30"/><rect x="1041" y="424" width="22" height="30"/><rect x="1090" y="424" width="22" height="30"/><rect x="1041" y="488" width="22" height="30"/><rect x="1090" y="488" width="22" height="30"/>
  </g>
  <circle cx="1295" cy="199" r="88" fill="#FFF3C4"/>
  <text x="96" y="1080" fill="#F8FAFC" font-family="Arial, sans-serif" font-size="76" font-weight="700">City Lights</text>
  <text x="96" y="1140" fill="#CBD5E1" font-family="Arial, sans-serif" font-size="28">Dummy urban skyline visual</text>
  <defs>
    <linearGradient id="bg" x1="800" y1="0" x2="800" y2="830" gradientUnits="userSpaceOnUse">
      <stop stop-color="#0F172A"/>
      <stop offset="0.6" stop-color="#3B0764"/>
      <stop offset="1" stop-color="#BE185D"/>
    </linearGradient>
  </defs>
</svg>
